<?xml version="1.0" standalone="no"?>
<svg
	xmlns:svg="http://www.w3.org/2000/svg"
	xmlns="http://www.w3.org/2000/svg"
	version="1.1"
	viewBox="0 0 550 550">
	<title>Someware logo</title>
	
	<!--path d="M0, 100 Q0, 0, 100, 0 L300, 0 Q400, 400, 400, 100" fill="50" stroke-width="0"/-->
	<path d="M0, 100 C0, 50, 50, 0, 100, 0
			 L300, 0 C350, 0, 400, 50, 400, 100
			 L400, 125
			 
			 L300, 125 C300, 112.5, 287.5, 100, 275, 100
			 L125, 100 C112.5, 100, 100, 112.5, 100, 125
			 L100, 275 C100, 287.5, 112.5, 300, 125, 300
			 L275, 300 C287.5, 300, 300, 287.5, 300, 275
			 
			 L400, 275
			 L400, 300 C400, 350, 350, 400, 300, 400
			 L100, 400 C75 400, 0, 350, 0, 300"
		fill="#505050" stroke-width="0"/>
	
	<path d="M150, 250 C150, 200, 200, 150, 250, 150
			 L450, 150 C500, 150, 550, 200, 550, 250
			 L550, 450 C550, 500, 500, 550, 450, 550
			 L250, 550 C200, 550, 150, 500, 150, 450
			 
			 L150, 425
			 L250, 425 C250, 437.5, 262.5, 450, 275, 450
			 L425, 450 C437.5, 450, 450, 437.5, 450, 425
			 L450, 275 C450, 262.5, 437.5, 250, 425, 250
			 L275, 250 C262.5, 250, 250, 262.5, 250, 275
			 L150, 275"
		fill="#757575" stroke-width="0"/>
</svg>